HIERARCHY
ROOT Hips
{
    OFFSET 0.0 0.0 0.0
    CHANNELS 6 Xposition Yposition Zposition Zrotation Xrotation Yrotation
    JOINT LeftHipJoint
    {
        OFFSET 0.1 0.0 0.0
        CHANNELS 3 Zrotation Xrotation Yrotation
        JOINT LeftUpLeg
        {
            OFFSET 120.05201551057984 0.0 0.0
            CHANNELS 3 Zrotation Xrotation Yrotation
            JOINT LeftLeg
            {
                OFFSET 0.0 0.0 -399.155174072582
                CHANNELS 3 Zrotation Xrotation Yrotation
                JOINT LeftFoot
                {
                    OFFSET 0.0 0.0 -384.89591817929556
                    CHANNELS 3 Zrotation Xrotation Yrotation
                    End Site
                    {
                        OFFSET 0.0 -0.1 0.0
                    }
                }
            }
        }
    }
    JOINT LowerBack
    {
        OFFSET 0.0 0.0 0.1
        CHANNELS 3 Zrotation Xrotation Yrotation
        JOINT Spine
        {
            OFFSET 0.0 0.0 219.42058241808854
            CHANNELS 3 Zrotation Xrotation Yrotation
            JOINT Spine1
            {
                OFFSET 0.0 0.0 254.604728350761
                CHANNELS 3 Zrotation Xrotation Yrotation
                JOINT LeftShoulder
                {
                    OFFSET 0.1 0.0 0.0
                    CHANNELS 3 Zrotation Xrotation Yrotation
                    JOINT LeftArm
                    {
                        OFFSET 145.09362262231235 0.0 0.0
                        CHANNELS 3 Zrotation Xrotation Yrotation
                        JOINT LeftForeArm
                        {
                            OFFSET 253.8960639142784 0.0 0.0
                            CHANNELS 3 Zrotation Xrotation Yrotation
                            JOINT LeftHand
                            {
                                OFFSET 239.6662707426686 0.0 0.0
                                CHANNELS 3 Zrotation Xrotation Yrotation
                                End Site
                                {
                                    OFFSET 0.1 0.0 0.0
                                }
                            }
                        }
                    }
                }
                JOINT Neck
                {
                    OFFSET 0.0 0.0 0.1
                    CHANNELS 3 Zrotation Xrotation Yrotation
                    JOINT Neck1
                    {
                        OFFSET 0.0 0.0 109.56638041558585
                        CHANNELS 3 Zrotation Xrotation Yrotation
                        End Site
                        {
                            OFFSET 0.0 0.0 114.91837245717116
                        }
                    }
                }
                JOINT RightShoulder
                {
                    OFFSET -0.1 0.0 0.0
                    CHANNELS 3 Zrotation Xrotation Yrotation
                    JOINT RightArm
                    {
                        OFFSET -145.09362262231235 0.0 0.0
                        CHANNELS 3 Zrotation Xrotation Yrotation
                        JOINT RightForeArm
                        {
                            OFFSET -253.8960639142784 0.0 0.0
                            CHANNELS 3 Zrotation Xrotation Yrotation
                            JOINT RightHand
                            {
                                OFFSET -239.6662707426686 0.0 0.0
                                CHANNELS 3 Zrotation Xrotation Yrotation
                                End Site
                                {
                                    OFFSET -0.1 0.0 0.0
                                }
                            }
                        }
                    }
                }
            }
        }
    }
    JOINT RightHipJoint
    {
        OFFSET -0.1 0.0 0.0
        CHANNELS 3 Zrotation Xrotation Yrotation
        JOINT RightUpLeg
        {
            OFFSET -120.05201551057984 0.0 0.0
            CHANNELS 3 Zrotation Xrotation Yrotation
            JOINT RightLeg
            {
                OFFSET 0.0 0.0 -399.155174072582
                CHANNELS 3 Zrotation Xrotation Yrotation
                JOINT RightFoot
                {
                    OFFSET 0.0 0.0 -384.89591817929556
                    CHANNELS 3 Zrotation Xrotation Yrotation
                    End Site
                    {
                        OFFSET 0.0 -0.1 0.0
                    }
                }
            }
        }
    }
}
MOTION
Frames: 4
Frame Time: 0.03333333333333333
0.0 0.0 786.6686719233248 25.597660503711957 7.476259368541945 3.8645961677673295 0.0 0.0 1.987846675914698e-16 -0.2851652816537593 -25.704614872145324 -4.612586803191404 -2.080747263586071 27.73006449039423 0.12653236672301377 0.0 0.0 0.0 0.0 0.0 1.987846675914698e-16 -0.023872459925816637 -2.2873579233891386 -0.4684360735892548 -4.048249299772606 -4.931410204630482e-16 -1.168831484350755e-16 0.0 -8.94531004161614e-16 0.0 -30.68521868049617 7.847734312320204 74.04745365833219 -23.867012407984042 2.865193429236618e-15 1.824595045849639e-15 0.0 0.0 -1.3169484227934873e-15 0.0 -8.94531004161614e-16 0.0 -3.9672993662836 -0.936366305848575 -4.61651711677275 0.0 -8.94531004161614e-16 0.0 20.40111848097458 15.828300845741417 -76.59831960499183 44.62628101650067 0.0 0.0 0.0 0.0 -7.951386703658792e-16 0.0 0.0 1.987846675914698e-16 -0.2277078132373077 -20.65833612879381 -0.6407499779416296 -0.00016900452881945133 24.74926254024358 -1.4992454961961739 0.0 0.0 0.0
0.0 0.0 786.6686719233248 25.610272392459912 7.365688334937708 3.9229406811757337 0.0 0.0 1.987846675914698e-16 -0.30874610533258395 -25.643365147218773 -4.6881656389165585 -2.1043019533683998 27.878869604063116 0.1900957890291637 0.0 0.0 3.975693351829396e-16 0.0 0.0 1.987846675914698e-16 -0.02573606127163087 -2.272734769562095 -0.5790677735737599 -4.065216036364497 -1.983070655979461e-15 -1.6983526240350915e-16 0.0 0.0 -1.987846675914698e-16 -31.12085984152985 7.794002913878384 74.03106068860983 -24.00329665188415 -6.733311865099327e-15 8.729931825904733e-15 0.0 0.0 9.193790876105477e-16 0.0 0.0 -1.987846675914698e-16 -3.935751839860066 -1.2556718248389716 -4.697683208737748 0.0 0.0 -1.987846675914698e-16 19.84598816924262 15.587028236443842 -75.98061390688083 46.05802156873098 4.171310365515559e-15 1.682862441823883e-15 6.361109362927035e-15 8.827812596100317e-32 1.5902773407317588e-15 0.0 0.0 1.987846675914698e-16 -0.24401972408797648 -20.436657208360977 -0.7454848933158679 -0.023811998553439018 24.6826710409197 -1.5228518594604106 0.0 0.0 3.975693351829396e-16
0.0 0.0 786.6686719233248 25.592499421856697 7.409041537723029 4.000995419616421 -4.138037154422024e-33 -7.951386703658792e-16 -5.963540027744094e-16 -0.34475223695831875 -25.77264225599723 -4.760957386924183 -2.119706662697752 28.09191956351025 0.15156887213120962 0.0 0.0 0.0 -4.138037154422024e-33 -7.951386703658792e-16 -5.963540027744094e-16 -0.029434805654744753 -2.343243723317464 -0.6963561373754237 -4.034667645978585 5.819892229610365e-16 4.183156909082826e-16 2.069018577211012e-33 -7.951386703658792e-16 2.981770013872047e-16 -31.4440733381644 7.663055532845147 74.11193682718267 -24.092083059607532 -8.914855155337232e-16 -3.4424066694418794e-15 0.0 0.0 2.236327510404035e-15 2.069018577211012e-33 -7.951386703658792e-16 2.981770013872047e-16 -3.840284001549315 -1.5504573165045965 -4.84914731384342 2.069018577211012e-33 -7.951386703658792e-16 2.981770013872047e-16 19.44077255314811 15.330257802035419 -75.2833491215461 47.766583726571 -1.2877269562270148e-15 -2.908210337645096e-15 0.0 0.0 1.5902773407317584e-15 -4.138037154422024e-33 -7.951386703658792e-16 -5.963540027744094e-16 -0.270529638476875 -20.443897120472975 -0.8411827287049473 -0.032948737697834574 24.63105730740943 -1.5731553284509632 0.0 0.0 0.0
0.0 0.0 786.6686719233248 25.54491934453955 7.530613108740357 4.016836596410246 0.0 0.0 -1.987846675914698e-16 -0.354097788102794 -26.047188388036023 -4.756150822910748 -2.129272554156935 28.31001230936501 0.046882021635598195 0.0 0.0 3.9756933518293955e-16 0.0 0.0 -1.987846675914698e-16 -0.03068287706490292 -2.407534438091754 -0.7742616035971652 -3.9277303996569986 1.2709048329546134e-15 6.40282975825515e-16 0.0 0.0 9.93923337957349e-17 -31.728647364629424 7.36487958482985 74.18829537312114 -24.271018307589994 -3.978525320185913e-15 1.0937547062605863e-14 0.0 0.0 -1.3914926731402886e-15 0.0 0.0 9.93923337957349e-17 -3.702752491652325 -1.8127060325218531 -4.94201555613448 0.0 0.0 9.93923337957349e-17 19.204754960443935 14.783000718809298 -74.50544470787813 49.462605821786426 7.108294347883224e-15 2.275782782887905e-16 0.0 0.0 1.5902773407317584e-15 0.0 0.0 -1.987846675914698e-16 -0.27727982672952706 -20.638926182517974 -0.8742194991051928 -0.04265964856394047 24.702191932061424 -1.5581376280590844 -3.1805546814635168e-15 2.2069531490250793e-32 -7.951386703658792e-16
